<svg width="25" height="25" viewBox="0 0 25 25" fill="none" xmlns="http://www.w3.org/2000/svg">
<g clip-path="url(#clip0_34_4)">
<path d="M0.78125 14.0625C0.351562 14.0625 0 14.4141 0 14.8438V16.4062C0 16.8359 0.351562 17.1875 0.78125 17.1875H6.25V14.0625H0.78125ZM24.6582 5.12695L19.8779 0.341797C19.6582 0.12207 19.3604 0 19.0479 0H18.75V6.25H25V5.95215C25 5.64453 24.8779 5.34668 24.6582 5.12695ZM17.1875 6.64062V0H7.42188C6.77246 0 6.25 0.522461 6.25 1.17188V14.0625H12.5V10.8789C12.5 10.1807 13.3447 9.83398 13.8379 10.3271L18.5059 15.0391C18.8281 15.3662 18.8281 15.8887 18.5059 16.2109L13.833 20.918C13.3398 21.4111 12.4951 21.0645 12.4951 20.3662V17.1875H6.25V23.8281C6.25 24.4775 6.77246 25 7.42188 25H23.8281C24.4775 25 25 24.4775 25 23.8281V7.8125H18.3594C17.7148 7.8125 17.1875 7.28516 17.1875 6.64062Z" fill="#A8A8A8"/>
</g>
<defs>
<clipPath id="clip0_34_4">
<rect width="25" height="25" fill="white"/>
</clipPath>
</defs>
</svg>
